<?xml version="1.0" encoding="utf-8"?>
<!-- Generator: Adobe Illustrator 24.3.0, SVG Export Plug-In . SVG Version: 6.00 Build 0)  -->
<svg version="1.1" id="Layer_1" xmlns="http://www.w3.org/2000/svg" xmlns:xlink="http://www.w3.org/1999/xlink" x="0px" y="0px"
	 viewBox="0 0 1000 1000" style="enable-background:new 0 0 1000 1000;" fill="black" xml:space="preserve">
<g>
	<g>
		<path d="M861.3,774.98l-0.06-249.48c-2.12-73.32-59.11-145.81-142.21-142.89H281.97c-39.45,0-75.15,15.98-101,41.83
			c-77.48,72.26-38.27,205.78,54.63,237.19c14.27,4.83,29.81,7.24,46.38,6.66c-0.01,0.01,292.2,0.01,432.74,0.01L861.3,774.98z
			 M314.17,573.03c-61.39-1.04-61.37-92.34,0-93.38C375.55,480.7,375.55,572,314.17,573.03z M541.33,549.66
			c-16.94,28.93-64.09,28.92-81.05,0c-6.25-10.67,1.72-24.1,14.08-24.1h52.89C539.62,525.56,547.58,538.99,541.33,549.66z
			 M689.78,479.65c61.38,1.05,61.38,92.35,0,93.38C628.39,571.99,628.41,480.69,689.78,479.65z"/>
	</g>
	<circle cx="501" cy="303.69" r="46.81"/>
</g>
</svg>
